<mxfile host="dadb32ba-08bb-4c0e-a463-6e66e8c8caf1" modified="2020-09-03T09:20:11.610Z" agent="5.0 (Macintosh; Intel Mac OS X 10_14_6) AppleWebKit/537.36 (KHTML, like Gecko) Code/1.48.2 Chrome/78.0.3904.130 Electron/7.3.2 Safari/537.36" etag="Lx8kU0hxOSp02r0j2RmC" version="13.1.3">
    <diagram id="6hGFLwfOUW9BJ-s0fimq" name="Class">
        <mxGraphModel dx="1533" dy="744" grid="1" gridSize="10" guides="1" tooltips="1" connect="1" arrows="1" fold="1" page="1" pageScale="1" pageWidth="750" pageHeight="500" math="0" shadow="0">
            <root>
                <mxCell id="0"/>
                <mxCell id="cNpNPP6aVxG1XG672JZR-27" value="BG" style="locked=1;" parent="0"/>
                <mxCell id="cNpNPP6aVxG1XG672JZR-26" value="" style="rounded=0;whiteSpace=wrap;html=1;strokeColor=none;" parent="cNpNPP6aVxG1XG672JZR-27" vertex="1">
                    <mxGeometry width="750" height="500" as="geometry"/>
                </mxCell>
                <mxCell id="1" value="Diagram" style="" parent="0"/>
                <mxCell id="25" value="" style="endArrow=open;html=1;endSize=12;startArrow=diamondThin;startSize=14;startFill=0;edgeStyle=orthogonalEdgeStyle;align=left;verticalAlign=bottom;strokeWidth=1;" parent="1" edge="1">
                    <mxGeometry x="-0.6667" y="20" relative="1" as="geometry">
                        <mxPoint x="315" y="296" as="sourcePoint"/>
                        <mxPoint x="435" y="296" as="targetPoint"/>
                        <Array as="points">
                            <mxPoint x="435" y="296"/>
                            <mxPoint x="435" y="296"/>
                        </Array>
                        <mxPoint as="offset"/>
                    </mxGeometry>
                </mxCell>
                <mxCell id="6" value="FlyweightFactory" style="swimlane;fontStyle=1;align=center;verticalAlign=top;childLayout=stackLayout;horizontal=1;startSize=26;horizontalStack=0;resizeParent=1;resizeParentMax=0;resizeLast=0;collapsible=1;marginBottom=0;" parent="1" vertex="1">
                    <mxGeometry x="115" y="270" width="200" height="90" as="geometry"/>
                </mxCell>
                <mxCell id="7" value="pool" style="text;strokeColor=none;fillColor=none;align=left;verticalAlign=top;spacingLeft=4;spacingRight=4;overflow=hidden;rotatable=0;points=[[0,0.5],[1,0.5]];portConstraint=eastwest;" parent="6" vertex="1">
                    <mxGeometry y="26" width="200" height="26" as="geometry"/>
                </mxCell>
                <mxCell id="8" value="" style="line;strokeWidth=1;fillColor=none;align=left;verticalAlign=middle;spacingTop=-1;spacingLeft=3;spacingRight=3;rotatable=0;labelPosition=right;points=[];portConstraint=eastwest;" parent="6" vertex="1">
                    <mxGeometry y="52" width="200" height="8" as="geometry"/>
                </mxCell>
                <mxCell id="9" value="get" style="text;strokeColor=none;fillColor=none;align=left;verticalAlign=top;spacingLeft=4;spacingRight=4;overflow=hidden;rotatable=0;points=[[0,0.5],[1,0.5]];portConstraint=eastwest;" parent="6" vertex="1">
                    <mxGeometry y="60" width="200" height="30" as="geometry"/>
                </mxCell>
                <mxCell id="26" value="Flyweight" style="swimlane;fontStyle=1;align=center;verticalAlign=top;childLayout=stackLayout;horizontal=1;startSize=26;horizontalStack=0;resizeParent=1;resizeParentMax=0;resizeLast=0;collapsible=1;marginBottom=0;" vertex="1" parent="1">
                    <mxGeometry x="440" y="270" width="200" height="90" as="geometry"/>
                </mxCell>
                <mxCell id="28" value="" style="line;strokeWidth=1;fillColor=none;align=left;verticalAlign=middle;spacingTop=-1;spacingLeft=3;spacingRight=3;rotatable=0;labelPosition=right;points=[];portConstraint=eastwest;" vertex="1" parent="26">
                    <mxGeometry y="26" width="200" height="8" as="geometry"/>
                </mxCell>
                <mxCell id="29" value="print" style="text;strokeColor=none;fillColor=none;align=left;verticalAlign=top;spacingLeft=4;spacingRight=4;overflow=hidden;rotatable=0;points=[[0,0.5],[1,0.5]];portConstraint=eastwest;" vertex="1" parent="26">
                    <mxGeometry y="34" width="200" height="56" as="geometry"/>
                </mxCell>
                <mxCell id="34" value="Use" style="endArrow=open;endSize=12;dashed=1;html=1;exitX=0.51;exitY=1.122;exitDx=0;exitDy=0;exitPerimeter=0;entryX=0.5;entryY=0;entryDx=0;entryDy=0;" edge="1" parent="1" target="6">
                    <mxGeometry width="160" relative="1" as="geometry">
                        <mxPoint x="212" y="153.65999999999997" as="sourcePoint"/>
                        <mxPoint x="200" y="210" as="targetPoint"/>
                    </mxGeometry>
                </mxCell>
                <mxCell id="35" value="Use" style="endArrow=open;endSize=12;dashed=1;html=1;entryX=0.5;entryY=0;entryDx=0;entryDy=0;" edge="1" parent="1" target="26">
                    <mxGeometry x="-0.3699" width="160" relative="1" as="geometry">
                        <mxPoint x="315" y="130" as="sourcePoint"/>
                        <mxPoint x="475" y="130" as="targetPoint"/>
                        <Array as="points">
                            <mxPoint x="540" y="130"/>
                        </Array>
                        <mxPoint as="offset"/>
                    </mxGeometry>
                </mxCell>
                <mxCell id="30" value="Client" style="swimlane;fontStyle=1;align=center;verticalAlign=top;childLayout=stackLayout;horizontal=1;startSize=26;horizontalStack=0;resizeParent=1;resizeParentMax=0;resizeLast=0;collapsible=1;marginBottom=0;" vertex="1" parent="1">
                    <mxGeometry x="115" y="120" width="200" height="34" as="geometry"/>
                </mxCell>
                <mxCell id="32" value="" style="line;strokeWidth=1;fillColor=none;align=left;verticalAlign=middle;spacingTop=-1;spacingLeft=3;spacingRight=3;rotatable=0;labelPosition=right;points=[];portConstraint=eastwest;" vertex="1" parent="30">
                    <mxGeometry y="26" width="200" height="8" as="geometry"/>
                </mxCell>
            </root>
        </mxGraphModel>
    </diagram>
</mxfile>